<svg xmlns="http://www.w3.org/2000/svg" width="174" height="126" fill="none" viewBox="0 0 174 126">
    <g clip-path="url(#clip0)">
        <path fill="#2B2E42" d="M130.01 22.46H88.29L77.85 12H46.53c-1.37.004-2.724.278-3.988.806-1.263.528-2.41 1.3-3.375 2.27-.965.972-1.729 2.124-2.248 3.391-.52 1.267-.784 2.624-.779 3.993l-.05 62.64c.008 2.766 1.11 5.417 3.066 7.373 1.957 1.957 4.608 3.06 7.374 3.067h83.48c2.773.003 5.434-1.095 7.399-3.052 1.965-1.958 3.073-4.615 3.081-7.388V32.9c-.008-2.773-1.116-5.43-3.081-7.388-1.965-1.957-4.626-3.055-7.399-3.052zm-31.28 52.2H57.01V64.22h41.72v10.44zm20.88-20.88h-62.6V43.34h62.6v10.44z"/>
        <path stroke="#2B2E42" stroke-dasharray="3 3" stroke-miterlimit="10" d="M34.01 38.63c-5.841 2.078-10.62 6.386-13.29 11.982-2.669 5.596-3.01 12.021-.95 17.868"/>
        <path fill="#E20917" stroke="#2B2E42" stroke-linecap="round" stroke-linejoin="round" stroke-width="2" d="M2.33 84l14.52-14.55 1.32 1.32 11.84-11.88 5.28 5.28-11.84 11.88 1.32 1.32-14.52 14.52c-1.9 1.9-5.79 1.67-7.69-.23-1.9-1.9-2.13-5.79-.23-7.66z"/>
        <path fill="#fff" stroke="#2B2E42" stroke-linecap="round" stroke-linejoin="round" stroke-width="2" d="M51.17 69.45c14.58 0 26.4-11.82 26.4-26.4 0-14.58-11.82-26.4-26.4-26.4-14.58 0-26.4 11.82-26.4 26.4 0 14.58 11.82 26.4 26.4 26.4z"/>
        <path fill="#2B2E42" stroke="#2B2E42" stroke-linecap="round" stroke-linejoin="round" d="M51.17 64.17c11.664 0 21.12-9.456 21.12-21.12 0-11.664-9.456-21.12-21.12-21.12-11.664 0-21.12 9.456-21.12 21.12 0 11.664 9.456 21.12 21.12 21.12z"/>
        <path stroke="#fff" stroke-linecap="round" stroke-linejoin="round" d="M35.33 43.05c0-4.2 1.669-8.23 4.64-11.2 2.97-2.97 6.999-4.64 11.2-4.64"/>
        <path fill="#E20917" d="M141.01 125c11.598 0 21-9.402 21-21s-9.402-21-21-21-21 9.402-21 21 9.402 21 21 21z"/>
        <path fill="#fff" d="M141.01 96.5c-5 0-9.27 3.11-11 7.5 1.73 4.39 6 7.5 11 7.5s9.27-3.11 11-7.5c-1.73-4.39-6-7.5-11-7.5zm0 12.5c-2.76 0-5-2.24-5-5s2.24-5 5-5 5 2.24 5 5-2.24 5-5 5zm0-8c-1.66 0-3 1.34-3 3s1.34 3 3 3 3-1.34 3-3-1.34-3-3-3z"/>
        <path fill="#2B2E42" d="M147.07 86.97l-.52-5.33-.52-5.33 4.16 1.4 4.16 1.4-3.64 3.93-3.64 3.93z"/>
        <path stroke="#2B2E42" stroke-dasharray="3 3" stroke-miterlimit="10" d="M104.11 22.86c2.12-8.6 8.82-15.72 16.93-19.3s17.44-3.84 26.05-1.71c6.78 1.67 13.34 4.87 18 10 5.63 6.2 8.16 14.87 7.68 23.23-.48 8.36-3.78 16.4-8.53 23.29C159.72 65 153.8 70.73 150.44 78"/>
    </g>
    <defs>
        <clipPath id="clip0">
            <path fill="#fff" d="M0 0H173.35V125.55H0z" transform="translate(.01)"/>
        </clipPath>
    </defs>
</svg>
