<svg xmlns="http://www.w3.org/2000/svg" width="168" height="125" fill="none" viewBox="0 0 168 125">
    <g clip-path="url(#clip0)">
        <path stroke="#2B2E42" stroke-dasharray="3 3" stroke-miterlimit="10" d="M34 37.9c-5.841 2.078-10.62 6.386-13.29 11.982-2.669 5.595-3.01 12.02-.95 17.868"/>
        <circle cx="92" cy="54" r="54" fill="#2B2E42"/>
        <path fill="#fff" d="M85.38 66.191c0-3.896.484-7.002 1.451-9.316.967-2.315 2.871-4.849 5.713-7.602 2.871-2.784 4.687-4.761 5.45-5.933 1.171-1.787 1.757-3.72 1.757-5.8 0-2.755-.689-4.85-2.066-6.285-1.347-1.465-3.34-2.197-5.976-2.197-2.52 0-4.556.717-6.108 2.153-1.524 1.406-2.286 3.325-2.286 5.757H72.637c.058-5.186 1.816-9.287 5.273-12.305 3.487-3.018 8.086-4.526 13.799-4.526 5.889 0 10.474 1.494 13.755 4.482 3.31 2.988 4.966 7.163 4.966 12.525 0 4.775-2.227 9.477-6.68 14.106l-5.405 5.317c-1.934 2.198-2.93 5.406-2.989 9.624h-9.975zm-.746 13.667c0-1.728.542-3.12 1.626-4.174 1.084-1.084 2.549-1.626 4.394-1.626 1.875 0 3.355.556 4.439 1.67 1.084 1.084 1.626 2.46 1.626 4.13 0 1.612-.528 2.96-1.582 4.043-1.055 1.084-2.55 1.626-4.483 1.626-1.933 0-3.427-.542-4.482-1.626-1.025-1.084-1.538-2.431-1.538-4.043z"/>
        <path fill="#E20917" stroke="#2B2E42" stroke-linecap="round" stroke-linejoin="round" stroke-width="2" d="M2.32 83.23l14.52-14.52L18.16 70 30 58.16l5.28 5.28-11.84 11.87 1.32 1.32-14.52 14.52c-1.9 1.91-5.79 1.68-7.69-.22-1.9-1.9-2.13-5.79-.23-7.7z"/>
        <path fill="#fff" stroke="#2B2E42" stroke-linecap="round" stroke-linejoin="round" stroke-width="2" d="M51.16 68.71c14.58 0 26.4-11.82 26.4-26.4 0-14.58-11.82-26.4-26.4-26.4-14.58 0-26.4 11.82-26.4 26.4 0 14.58 11.82 26.4 26.4 26.4z"/>
        <path fill="#2B2E42" stroke="#2B2E42" stroke-linecap="round" stroke-linejoin="round" d="M51.16 63.43c11.664 0 21.12-9.456 21.12-21.12 0-11.664-9.456-21.12-21.12-21.12-11.664 0-21.12 9.456-21.12 21.12 0 11.664 9.456 21.12 21.12 21.12z"/>
        <path stroke="#fff" stroke-linecap="round" stroke-linejoin="round" d="M35.32 42.31c0-4.201 1.669-8.23 4.64-11.2 2.97-2.971 6.999-4.64 11.2-4.64"/>
        <path fill="#E20917" d="M140.18 125.08c11.896 0 21.54-9.644 21.54-21.54 0-11.896-9.644-21.54-21.54-21.54-11.896 0-21.54 9.644-21.54 21.54 0 11.896 9.644 21.54 21.54 21.54z"/>
        <path fill="#2B2E42" d="M147.06 86.24l-.52-5.33-.52-5.33 4.16 1.4 4.16 1.4-3.64 3.93-3.64 3.93z"/>
        <path stroke="#2B2E42" stroke-dasharray="3 3" stroke-miterlimit="10" d="M114.47 15.79C117.82 10 124.4 6.67 131 5.3c12.54-2.62 27.3 1.75 33.42 13 4.86 8.94 3.39 20.06-.3 29.53-3.69 9.47-9.42 18-13.14 27.51"/>
        <path fill="#fff" d="M140 96.5c-5 0-9.27 3.11-11 7.5 1.73 4.39 6 7.5 11 7.5s9.27-3.11 11-7.5c-1.73-4.39-6-7.5-11-7.5zm0 12.5c-2.76 0-5-2.24-5-5s2.24-5 5-5 5 2.24 5 5-2.24 5-5 5zm0-8c-1.66 0-3 1.34-3 3s1.34 3 3 3 3-1.34 3-3-1.34-3-3-3z"/>
    </g>
    <defs>
        <clipPath id="clip0">
            <path fill="#fff" d="M0 0H167.99V124.82H0z"/>
        </clipPath>
    </defs>
</svg>
