<svg xmlns="http://www.w3.org/2000/svg" width="168" height="119" fill="none" viewBox="0 0 168 119">
    <g clip-path="url(#clip0)">
        <path fill="#2B2E42" d="M139.03 41.76V0H102.5v15.66H71.17V0H34.63v41.76h36.54V26.1h10.44v52.2h20.89V94h36.54V52.2H102.5v15.66H92.05V26.1h10.45v15.66h36.53z"/>
        <path stroke="#2B2E42" stroke-dasharray="3 3" stroke-miterlimit="10" d="M30.5 32c-5.76 2-11.15 6.25-13.27 12-5.82 15.72 3.49 21.28 5.52 27M137.15 4.67c4.745-.381 9.508.48 13.82 2.498 4.311 2.018 8.023 5.124 10.77 9.012 2.656 3.95 4.262 8.513 4.664 13.257.403 4.744-.411 9.511-2.364 13.853-3.45 7.49-10 13.08-14.16 20.21-2.839 4.93-4.442 10.475-4.67 16.16"/>
        <path fill="#E20917" stroke="#2B2E42" stroke-linecap="round" stroke-linejoin="round" stroke-width="2" d="M2.82 90.84l14.52-14.52 1.32 1.32L30.5 65.77l5.28 5.28-11.84 11.87 1.32 1.32-14.52 14.52c-1.9 1.91-5.79 1.68-7.69-.22-1.9-1.9-2.13-5.79-.23-7.7z"/>
        <path fill="#fff" stroke="#2B2E42" stroke-linecap="round" stroke-linejoin="round" stroke-width="2" d="M51.66 76.32c14.58 0 26.4-11.82 26.4-26.4 0-14.58-11.82-26.4-26.4-26.4-14.58 0-26.4 11.82-26.4 26.4 0 14.58 11.82 26.4 26.4 26.4z"/>
        <path fill="#2B2E42" stroke="#2B2E42" stroke-linecap="round" stroke-linejoin="round" d="M51.66 71.04c11.664 0 21.12-9.456 21.12-21.12 0-11.664-9.456-21.12-21.12-21.12-11.664 0-21.12 9.456-21.12 21.12 0 11.664 9.456 21.12 21.12 21.12z"/>
        <path stroke="#fff" stroke-linecap="round" stroke-linejoin="round" d="M35.82 49.92c0-2.08.41-4.14 1.206-6.062.796-1.921 1.963-3.668 3.433-5.139 2.971-2.97 7-4.639 11.201-4.639"/>
        <path fill="#E20917" d="M136.72 118.87c11.896 0 21.54-9.644 21.54-21.54 0-11.896-9.644-21.54-21.54-21.54-11.896 0-21.54 9.644-21.54 21.54 0 11.896 9.644 21.54 21.54 21.54z"/>
        <path stroke="#fff" stroke-linecap="round" stroke-linejoin="round" stroke-width="3" d="M124.99 97.33h23.46M136.72 85.6v23.46"/>
        <path fill="#2B2E42" d="M143.6 80.3l-.52-5.33-.52-5.33 4.16 1.4 4.16 1.39-3.64 3.93-3.64 3.94z"/>
    </g>
    <defs>
        <clipPath id="clip0">
            <path fill="#fff" d="M0 0H166.51V118.88H0z" transform="translate(.5)"/>
        </clipPath>
    </defs>
</svg>
