<svg width="170" height="140" viewBox="0 0 170 140" fill="none" xmlns="http://www.w3.org/2000/svg">
<path d="M129.44 14.7522H103.92L88.1538 0L72.3873 14.6918H48.3039C46.7871 14.6905 45.2848 14.9912 43.8831 15.5767C42.4815 16.1623 41.2079 17.0211 40.1353 18.1042C39.0627 19.1873 38.2121 20.4733 37.6322 21.8886C37.0524 23.304 36.7546 24.8209 36.7559 26.3526V107.988C36.7546 109.52 37.0524 111.037 37.6322 112.452C38.2121 113.868 39.0627 115.154 40.1353 116.237C41.2079 117.32 42.4815 118.179 43.8831 118.764C45.2848 119.35 46.7871 119.65 48.3039 119.649H129.15C130.667 119.65 132.17 119.35 133.571 118.764C134.973 118.179 136.246 117.32 137.319 116.237C138.392 115.154 139.242 113.868 139.822 112.452C140.402 111.037 140.7 109.52 140.698 107.988V26.3526C140.684 23.3204 139.5 20.4131 137.398 18.2475C135.296 16.0818 132.442 14.8281 129.44 14.7522ZM100.28 96.3173H59.8321V84.6666H100.26L100.28 96.3173ZM117.602 73.0058H59.8321V61.345H117.582L117.602 73.0058ZM117.602 49.6842H59.8321V38.0234H117.582L117.602 49.6842Z" fill="#2B2E42"/>
<path d="M2.31158 98.13L16.7915 83.5087L18.1079 84.8379L29.9153 72.875L35.1807 78.1918L23.3734 90.1547L24.6897 91.4839L10.2097 106.105C8.31498 108.018 4.43571 107.797 2.54095 105.874C0.646186 103.95 0.41682 100.043 2.31158 98.13Z" fill="#E20917" stroke="#2B2E42" stroke-width="2" stroke-linecap="round" stroke-linejoin="round"/>
<path d="M51.0167 83.5082C65.5568 83.5082 77.3439 71.6061 77.3439 56.924C77.3439 42.242 65.5568 30.3398 51.0167 30.3398C36.4765 30.3398 24.6895 42.242 24.6895 56.924C24.6895 71.6061 36.4765 83.5082 51.0167 83.5082Z" fill="white" stroke="#2B2E42" stroke-width="2" stroke-linecap="round" stroke-linejoin="round"/>
<path d="M51.0168 78.1919C62.6489 78.1919 72.0786 68.6702 72.0786 56.9246C72.0786 45.1789 62.6489 35.6572 51.0168 35.6572C39.3848 35.6572 29.9551 45.1789 29.9551 56.9246C29.9551 68.6702 39.3848 78.1919 51.0168 78.1919Z" fill="#2B2E42" stroke="#2B2E42" stroke-linecap="round" stroke-linejoin="round"/>
<path d="M35.2207 56.9241C35.2207 52.6938 36.885 48.6367 39.8473 45.6454C42.8097 42.6541 46.8276 40.9736 51.017 40.9736" stroke="white" stroke-linecap="round" stroke-linejoin="round"/>
</svg>
