<svg width="162" height="125" viewBox="0 0 162 125" fill="none" xmlns="http://www.w3.org/2000/svg">
<g clip-path="url(#clip0)">
<path d="M130.74 19.71H47.2201C44.4583 19.7179 41.8126 20.822 39.8644 22.7796C37.9161 24.7372 36.8248 27.3882 36.8301 30.15V124.15L57.7101 103.27H130.79C133.557 103.262 136.207 102.16 138.164 100.203C140.12 98.2473 141.222 95.5964 141.23 92.83V30.15C141.222 27.3749 140.113 24.7165 138.146 22.7589C136.179 20.8013 133.515 19.7047 130.74 19.71ZM68.1001 82.35H57.6601V71.91H68.1001V82.35ZM68.1001 66.69H57.6601V56.25H68.1001V66.69ZM68.1001 51H57.6601V40.59H68.1001V51ZM104.64 82.32H78.5401V71.91H104.64V82.32ZM120.3 66.69H78.5401V56.25H120.3V66.69ZM120.3 51.03H78.5401V40.59H120.3V51.03Z" fill="#2B2E42"/>
<path d="M2.32009 68.32L16.8401 53.8L18.1601 55.12L30.0001 43.25L35.2801 48.53L23.4401 60.4L24.7601 61.72L10.2401 76.24C8.34009 78.14 4.45009 77.92 2.55009 76.01C0.650091 74.1 0.420091 70.22 2.32009 68.32Z" fill="#E20917" stroke="#2B2E42" stroke-width="2" stroke-linecap="round" stroke-linejoin="round"/>
<path d="M51.16 53.8C65.7403 53.8 77.56 41.9803 77.56 27.4C77.56 12.8197 65.7403 1 51.16 1C36.5797 1 24.76 12.8197 24.76 27.4C24.76 41.9803 36.5797 53.8 51.16 53.8Z" fill="white" stroke="#2B2E42" stroke-width="2" stroke-linecap="round" stroke-linejoin="round"/>
<path d="M51.16 48.5198C62.8243 48.5198 72.28 39.064 72.28 27.3998C72.28 15.7355 62.8243 6.27979 51.16 6.27979C39.4958 6.27979 30.04 15.7355 30.04 27.3998C30.04 39.064 39.4958 48.5198 51.16 48.5198Z" fill="#2B2E42" stroke="#2B2E42" stroke-linecap="round" stroke-linejoin="round"/>
<path d="M35.3201 27.4001C35.3201 23.199 36.9889 19.1701 39.9595 16.1995C42.9301 13.2289 46.959 11.5601 51.1601 11.5601" stroke="white" stroke-linecap="round" stroke-linejoin="round"/>
<path d="M140.18 121.9C152.076 121.9 161.72 112.256 161.72 100.36C161.72 88.4636 152.076 78.8198 140.18 78.8198C128.284 78.8198 118.64 88.4636 118.64 100.36C118.64 112.256 128.284 121.9 140.18 121.9Z" fill="#E20917"/>
<path d="M128.45 100.36H151.91" stroke="white" stroke-width="3" stroke-linecap="round" stroke-linejoin="round"/>
<path d="M140.18 88.6299V112.09" stroke="white" stroke-width="3" stroke-linecap="round" stroke-linejoin="round"/>
<path d="M148.02 88.9998L147.5 83.6698L146.97 78.3398L151.13 79.7299L155.29 81.1298L151.65 85.0598L148.02 88.9998Z" fill="#2B2E42"/>
<path d="M148.59 82.2802C153.184 77.9856 156.093 72.1904 156.79 65.9402C157.108 62.8339 156.803 59.6954 155.891 56.7091C154.979 53.7227 153.479 50.9487 151.48 48.5502C147.57 44.0002 142.01 41.2702 136.61 38.6602" stroke="#2B2E42" stroke-miterlimit="10" stroke-dasharray="3 3"/>
<path d="M28.56 42.3599C25.5936 44.1455 23.1552 46.6876 21.4947 49.7257C19.8342 52.7639 19.0112 56.1889 19.11 59.6499C19.4656 64.7759 21.4845 69.6458 24.86 73.5199C28.2501 77.3595 32.3179 80.5425 36.86 82.9099" stroke="#2B2E42" stroke-miterlimit="10" stroke-dasharray="3 3"/>
</g>
<defs>
<clipPath id="clip0">
<rect width="161.73" height="124.11" fill="white"/>
</clipPath>
</defs>
</svg>
