<svg xmlns="http://www.w3.org/2000/svg" width="168" height="125" fill="none" viewBox="0 0 168 125">
    <g clip-path="url(#clip0)">
        <path stroke="#2B2E42" stroke-dasharray="3 3" stroke-miterlimit="10" d="M34 37.9c-5.841 2.078-10.62 6.386-13.29 11.982-2.669 5.595-3.01 12.02-.95 17.868"/>
        <circle cx="92" cy="54" r="54" fill="#2B2E42"/>
        <path fill="#fff" d="M109.164 33.342l-14.03-12.923-.048 14.685 5.416 4.979 2.746 2.527-.148 43.255c-.003.818.319 1.601.896 2.178.576.576 1.359.898 2.177.896l5.67-.019c.818-.002 1.603-.33 2.183-.91.581-.58.908-1.366.911-2.183l.139-43.265 2.732-2.519 4.474-4.13.048-14.685-13.166 12.114z"/>
        <path fill="#fff" stroke="#2B2E42" stroke-linecap="round" stroke-linejoin="round" d="M88.916 19.03l-6.455-.02c-.47-.017-.926.153-1.268.473-.343.32-.543.764-.558 1.234l.027 8.078c.012.658.209 1.3.566 1.855.357.555.862 1 1.457 1.285l1.042.525.08 23.65 4.008.014-.078-23.649 1.04-.52c.594-.28 1.096-.723 1.45-1.276.353-.553.544-1.195.551-1.853l-.024-8.076c-.019-.47-.222-.914-.567-1.236-.344-.322-.8-.496-1.27-.484z"/>
        <path fill="#E10A19" d="M89.38 88.948l-5.505-.018c-1.04-.004-2.04-.42-2.779-1.159-.738-.739-1.155-1.738-1.159-2.78l-.082-23.857c-.004-.754.142-1.501.428-2.197.287-.697.708-1.329 1.24-1.86.531-.532 1.163-.953 1.86-1.24.696-.286 1.442-.431 2.197-.428l1.875.006c.755.002 1.503.153 2.2.443.699.291 1.334.716 1.869 1.251.535.536.96 1.17 1.251 1.869.29.698.441 1.445.443 2.2l.078 23.853c.003.516-.097 1.027-.293 1.504-.195.476-.483.909-.847 1.272-.364.364-.797.652-1.273.848-.476.196-.987.295-1.503.293z"/>
        <path fill="#E20917" stroke="#2B2E42" stroke-linecap="round" stroke-linejoin="round" stroke-width="2" d="M2.32 83.23l14.52-14.52L18.16 70 30 58.16l5.28 5.28-11.84 11.87 1.32 1.32-14.52 14.52c-1.9 1.91-5.79 1.68-7.69-.22-1.9-1.9-2.13-5.79-.23-7.7z"/>
        <path fill="#fff" stroke="#2B2E42" stroke-linecap="round" stroke-linejoin="round" stroke-width="2" d="M51.16 68.71c14.58 0 26.4-11.82 26.4-26.4 0-14.58-11.82-26.4-26.4-26.4-14.58 0-26.4 11.82-26.4 26.4 0 14.58 11.82 26.4 26.4 26.4z"/>
        <path fill="#2B2E42" stroke="#2B2E42" stroke-linecap="round" stroke-linejoin="round" d="M51.16 63.43c11.664 0 21.12-9.456 21.12-21.12 0-11.664-9.456-21.12-21.12-21.12-11.664 0-21.12 9.456-21.12 21.12 0 11.664 9.456 21.12 21.12 21.12z"/>
        <path stroke="#fff" stroke-linecap="round" stroke-linejoin="round" d="M35.32 42.31c0-4.201 1.669-8.23 4.64-11.2 2.97-2.971 6.999-4.64 11.2-4.64"/>
        <path fill="#E20917" d="M140.18 125.08c11.896 0 21.54-9.644 21.54-21.54 0-11.896-9.644-21.54-21.54-21.54-11.896 0-21.54 9.644-21.54 21.54 0 11.896 9.644 21.54 21.54 21.54z"/>
        <path fill="#2B2E42" d="M147.06 86.24l-.52-5.33-.52-5.33 4.16 1.4 4.16 1.4-3.64 3.93-3.64 3.93z"/>
        <path stroke="#2B2E42" stroke-dasharray="3 3" stroke-miterlimit="10" d="M114.47 15.79C117.82 10 124.4 6.67 131 5.3c12.54-2.62 27.3 1.75 33.42 13 4.86 8.94 3.39 20.06-.3 29.53-3.69 9.47-9.42 18-13.14 27.51"/>
        <path fill="#fff" d="M140 96.5c-5 0-9.27 3.11-11 7.5 1.73 4.39 6 7.5 11 7.5s9.27-3.11 11-7.5c-1.73-4.39-6-7.5-11-7.5zm0 12.5c-2.76 0-5-2.24-5-5s2.24-5 5-5 5 2.24 5 5-2.24 5-5 5zm0-8c-1.66 0-3 1.34-3 3s1.34 3 3 3 3-1.34 3-3-1.34-3-3-3z"/>
    </g>
    <defs>
        <clipPath id="clip0">
            <path fill="#fff" d="M0 0H167.99V124.82H0z"/>
        </clipPath>
    </defs>
</svg>
